PathFileType	4	(X/Y/Z)	Patient4_TMGait_0pt4_01_right_20.trc.trc
DataRate	CameraRate	NumFrames	NumMarkers	Units	OrigDataRate	OrigDataStartFrame	OrigNumFrames
76.923076923077	76.923076923077	4	33	mm	76.923076923077	18	       141
Frame#	Time	Sacral			L.Shoulder			Chest			R.Shoulder			Neck			R.ASIS			L.ASIS			R.Thigh.Superior			R.Thigh.Lateral			R.Thigh.Inferior			R.Patella			L.Thigh.Superior			L.Thigh.Lateral			L.Thigh.Inferior			L.Patella			L.Shank.Superior			L.Shank.Lateral			L.Shank.Inferior			R.Shank.Superior			R.Shank.Lateral			R.Shank.Inferior			R.Heel			R.Midfoot.Superior			R.Midfoot.Lateral			R.Toe			L.Heel			L.Midfoot.Lateral			L.Midfoot.Superior			L.Toe			L.Elbow			L.Wrist			R.Elbow			R.Wrist			
		X1	Y1	Z1	X2	Y2	Z2	X3	Y3	Z3	X4	Y4	Z4	X5	Y5	Z5	X6	Y6	Z6	X7	Y7	Z7	X8	Y8	Z8	X9	Y9	Z9	X10	Y10	Z10	X11	Y11	Z11	X12	Y12	Z12	X13	Y13	Z13	X14	Y14	Z14	X15	Y15	Z15	X16	Y16	Z16	X17	Y17	Z17	X18	Y18	Z18	X19	Y19	Z19	X20	Y20	Z20	X21	Y21	Z21	X22	Y22	Z22	X23	Y23	Z23	X24	Y24	Z24	X25	Y25	Z25	X26	Y26	Z26	X27	Y27	Z27	X28	Y28	Z28	X29	Y29	Z29	X30	Y30	Z30	X31	Y31	Z31	X32	Y32	Z32	X33	Y33	Z33	

18	25.971000000000	686.530759300351	1015.412542774188	428.304921880191	891.641576722683	1438.345587000517	250.315014049715	992.029379857183	1363.312487432145	409.087222618113	913.398528109776	1442.347553142693	582.864997703385	876.612855093915	1496.194313782952	418.933407792576	909.852469562618	946.075427608538	551.438678187503	903.311988354663	963.111170456317	277.103723097969	987.267288519281	778.489065156994	524.760935896557	946.743602367938	656.832323201968	601.278955802581	1037.505428872951	620.981085524782	523.601333789055	1068.860823650947	528.265845652516	544.466040358348	925.934003141836	739.485253456084	305.885762602295	825.304268431665	636.222505318265	239.785319471597	894.867375849767	548.272974081065	304.558489857777	885.060941928204	480.806604280377	313.165394382568	854.394222771664	412.430847698901	301.787956229314	757.762215078903	306.434033266684	247.627144993868	797.777985843639	189.968480690632	316.223079956069	1032.391609937887	438.045185397188	553.093360497679	953.538694442770	340.583862065064	617.166295292216	998.699287913729	241.160306121575	566.150502455964	865.712378185547	75.317178788124	540.670918720175	1037.424802333372	127.165490942198	581.395777294318	948.285566901554	62.893912570113	615.267252758414	1153.929886663237	73.478445028570	608.363526957919	660.049873008405	39.179505658353	356.185030472955	731.530049611455	35.461364121442	273.589584624661	816.855468247038	95.328388756125	298.902677862868	943.591153072783	40.291617597110	265.250891626724	890.973213203084	1223.755199726655	-13.442630745648	1047.396933614953	1093.760077692867	-179.915948336168	831.951453712229	1112.629879474026	717.086846764479	862.284123963423	861.257825432075	775.323487509564	
19	25.984000000000	687.911416101915	1014.301268825263	430.008289656665	892.487093796265	1437.708986909014	253.146720115275	992.593607938468	1362.621446827622	412.058108205587	913.512705000594	1441.511305195164	585.671751263383	877.032251021012	1495.335974787066	421.769506497745	911.213206913813	944.679901081631	553.548164942390	904.817693281393	962.562875150824	279.057604716614	986.018267895931	774.540208057898	527.350278065568	942.536969226909	653.000226961333	602.649653312054	1033.223921622132	616.742643759231	525.191557137531	1063.595047186667	525.983988671604	544.886652659889	925.753711158160	738.287487971182	307.383544230867	824.144214290190	635.835730519978	240.810590675080	892.801367234772	547.220437538661	305.383752493801	882.417887655762	479.730917990302	313.748856354555	851.297222468968	411.598992964716	302.317469429537	753.801710616358	306.354503848051	248.021900874875	793.043835931091	189.455305051326	316.313126782811	1030.674184055987	435.435818676546	553.697709933832	955.846393955751	334.478876114258	617.339770230495	1005.604912520499	237.095789523064	566.048324689528	879.829075898931	65.960370983515	539.678966535657	1049.640467133177	124.169075233666	580.825835142160	962.729031801609	56.646787828994	614.508226745654	1168.212136900546	74.828416956024	608.070246484560	654.758859687656	38.946041851029	356.150528402909	726.231276449153	35.288236220251	273.564743030789	811.500999481028	95.225709094408	298.939223173279	938.314923147576	40.257701904605	265.259177953756	893.773966383738	1225.765805000087	-11.812899642931	1049.356447398748	1095.451791208424	-178.987361682552	827.577037606920	1114.009622977302	721.386152600302	855.232940244197	862.832467709530	781.638554375126	
20	25.997000000000	689.553094705274	1012.860248660007	432.038648744603	892.946133766339	1436.902272583933	256.172806079478	993.031411299071	1361.916716544544	415.135078761233	913.569349383296	1440.538429825489	588.681067050041	877.237902566616	1494.319212065365	424.805474204974	913.001109850659	943.039565695982	555.761023718192	906.575425730591	961.902614655318	281.167609010096	985.103398189507	770.084500083515	530.021250558087	938.479441852832	648.875009102229	603.985688986050	1028.882560932337	612.115293857847	526.521647149931	1057.936979924630	523.138440668855	544.976769355092	926.078699434185	737.007021949962	308.988992734877	823.524531290605	635.280735322283	242.017858191262	891.377844359165	546.035698382611	306.342536473208	880.486482077151	478.419219013336	314.439166081982	848.721275945612	410.556212457909	302.968392268647	750.177821906293	306.229749144976	248.524979176440	788.443986426247	188.812637085378	316.445563050202	1028.324593944082	432.358237431113	554.061733371194	957.122142537202	328.457992035417	617.246560893564	1010.833823642904	233.014956344509	565.649580004578	891.306033369899	57.991549057389	538.485325266117	1059.516598607782	120.944781478730	579.832078227899	974.381087686683	51.188357868472	613.509846210869	1179.619892014734	74.945598121937	607.338464806976	649.446870650938	38.658065280702	356.113299766053	720.930414051948	35.062605524601	273.546836517992	806.141790713349	95.090371958008	298.988573655197	933.052371483682	40.220436567299	265.250736621902	896.109442945440	1227.165034746749	-9.750643815334	1051.060737989967	1096.656045246474	-177.525694469237	823.812981266554	1115.084366973990	725.712330394384	849.341288376763	864.078605524049	787.670771818953	
21	26.010000000000	691.404740713556	1011.147802148675	434.391318807080	893.046225050191	1435.969692840580	259.389953284572	993.358644594868	1361.233757556021	418.321783863452	913.575066090705	1439.463488082945	591.895100696951	877.255317121129	1493.185629380588	428.038001216334	915.145594648864	941.233667387671	558.094311974658	908.551270591954	961.151938217908	283.462066712601	984.599596658150	765.359521990261	532.737555124402	934.763531355801	644.679560124978	605.262103019120	1024.703402244798	607.366671813563	527.598429632495	1052.156507413998	519.923301791421	544.769963141812	926.928061078482	735.669350624427	310.731000975277	823.489567567520	634.561482832076	243.445536286301	890.672773338581	544.731374834849	307.471277015436	879.361768005217	476.865764912987	315.262501471380	846.731452770709	409.312449652473	303.763579404468	746.938715762512	306.100773017912	249.160994163705	784.016192434248	188.073179122239	316.632980931142	1025.539951251862	428.977158401703	554.190788130370	957.470973561208	322.705397677732	616.945163561575	1014.363393499640	229.005761084335	564.975740182880	899.846487880610	51.540831611303	537.183568388971	1066.903915102580	117.513701766473	578.428374530418	983.002843006314	46.590470429648	612.342179882589	1188.034971891494	73.725593521878	606.138030821344	644.124899276983	38.377819920735	356.073157490310	715.636640605658	34.814045359941	273.539791485820	800.807627674427	94.932806586721	299.040154857315	927.810567826951	40.171895049816	265.217981544299	897.952248388972	1227.973002709417	-7.278584040524	1052.528391499036	1097.421850008170	-175.519976887180	820.725542676135	1115.819889783498	730.038328753958	844.613059941669	864.960687546038	793.435151898003	
